/* XPM */
static char *result[] = {
/* columns rows colors chars-per-pixel */
"120 120 40 1 ",
"  c #59554B",
". c #706C62",
"X c #625F55",
"o c #504D43",
"O c #7B786E",
"+ c #747066",
"@ c #666358",
"# c #78746A",
"$ c #5D5A50",
"% c #545147",
"& c #69665B",
"* c #807C73",
"= c #6C695E",
"- c #48453B",
"; c #4C493F",
": c #3E3D32",
"> c #434136",
", c #848077",
"< c #88847C",
"1 c #3A382E",
"2 c #8D8981",
"3 c #323226",
"4 c #938F87",
"5 c #4A4C35",
"6 c #545541",
"7 c #5D5D4A",
"8 c #42442E",
"9 c #62624F",
"0 c #50513C",
"q c #383A26",
"w c #98948D",
"e c #2B2C1F",
"r c #595A44",
"t c #9E9B94",
"y c #696953",
"u c #706F5C",
"i c #020201",
"p c #A6A39D",
"a c #212117",
"s c #B4B1AC",
/* pixels */
"iiiiiiiiiiiiiiiiiiiiiiiiiiiiiiiiiiiiiiiiiiiiiiiiiiiiiiiiiiiiiiiiiiiiiiiiiiiiiiiiiiiiiiiiiiiiiiiiiiiiiiiiiiiiiiiiiiiiiiii",
">11>;o;13e1o%%$$ %oo%% %o->>-->::::11:13e33eae:;%$=.+O*$-:>:1:%$ ;>31o$$;5;;>13ee3113::3eeeee3:-05>-008qqqqe3ee3eeee3e33",
"Xr%$&& >:-%&.#,<O.$X&&9$ o%%%%%o% %;oo;--0;>31;7=,4wttt#977r$&O+X o-o$@@799 ;>:1:o@9oo;81:-679&uu+yyuu760588888888506799",
"7r7X@$>31>;$=#<<#X-o 606;-;oo% X==X%  ;--;->1:;ru,4ww4*yyyy&+,*@->:;o%$ $X o;;>:> .& ;>1q>o$@&&@@&9 796000550r6056yy+O*O",
"50r7 oqeeq1;@#*O@-3:-50r6;o%$X+,<*=9@$;>>:qq867y#,,<2O99yy.OO,+%:1:;%$&&=@%o$X$o; X$ ;8q1>o%ooo-% o-8856999&=u960r#*,22,",
"888555qee3:6&O#@-3eq- 7 $ $&==O<,+$% %->--11%.****+uuuu+++.=9%>850$ $&.==$;%=O+@ o% %588:>;%>>;-$&&7080=O+=#u96555y#++O*",
"q18883aaa3 =,<+61q3>$@XXX@&..=O<OXo%X@@XX >-X#*<22,OO,++++.. >:>o@&$  o; @@&#,+%>;X@@&&X @#O -%o.*O.X;0u+75rr00058065555",
">>>5;1eae-$@O#78qqqo77r06@===.#,O&$&####. e O<,<,*OO,<****#X%;:1-;;;;>:>5660699;:o+,<*+==.O,@%$ =+& ;;;608q8558850->:3e8",
"%   %133>o60r08qqq8679767&=@&+,<#@7&#**O+oe@,,#OO*,,<<,OOO+@@$>1::>555>-0605%X@$ X#O+.&&&&=.XX&.#,+%-$X@765888>:1;X=$>36",
"..@ >e3500558q3qq8567977&=&X@+<2#$r&#*O#=;:=O#+#****#++...=&=$-11566660%997X&++=XX=Xo%X&=&&=.+O*,4<= +O,*+900r%>3-+,.o:%",
"O.$>eaq5555;;8q33806r606X=@$ X+2*&@#*,#+=%oX&=+**O+=X $@&==XX%>:>07977$@.@=..#+$oo%o-%@+*O+,222<,2w,X.*<22*y..X-1;.+& o-",
"%;:3eaeq8>>o&.%335r 6;>-%@@%>> O,**<2<*O#@%%$&.+==..&@.##+&$ o;oo;o X@@@$% XX@$o%%o-o.#*42O<ww42,4p<;-$+,<,O*$;o  @+..+9",
"3ee3>588->-X=X>1-@#O.$% @.O#&@O22<2w4<,*#= %$&.#O###+#*<<,=;-; &+&;-%$$$o;%  $&#,,@>%#O<tw,,,<<<2w2=:1--o$&=$- X ;6r605:",
"ae1o$905:1;$$X  &O<2,#=.++O*OO<444442,O#.X@.O*O#O###O<4w4*%1:-;o  o% X@&$ $@.+,4w<X1;=*242u9979&X$X$o%@ ;o X;;o-q3q- $7 ",
"3>%X==$-1-X&==@@+<244<**O##OO*,<22<,O+==&@.**OO*O++O,242# :1-%$X@&XXX$$$% @.+.*4,& %-&*,O.0888>-:>;o>-X&XX@@;0>qeee .+.+",
"%$X@&@$:1;@=.u&=#<22<,O##+++#O+.+#.&9r6% $@u..+#+u+*<22.-1-%$@.##+=@99$X$$$7$7uOX;o > XX %833q8:>o  o%.,**Oy058qeee$+#+.",
"$ %ooo>eq;r9yy=+O*,,O.=&&=&@@@9  r66;>:>o 7X=.=yyyu##+uoe1X#.+###==&&.O*#&65;%$@o>;o->>>-;0>>56r@###O<442,#r58qqe33;@..&",
"q33eeeaa:@.@&&+OOO##.=@$ %o--00--;o%   $X=##*Oy99y=X;;0>1-=O*OO##O,**<22+$ $&&%o;o%$$;%@===@  @*2w44wt2Oyr8q3qq3qqq8 &.#",
"eqq3eaea-+*.&@==@$% %;;;;;--06o%$=O*<2<*,<4422,&o;%$X&X;11-.*O#OOO,**,,O&$$X$->o$$$  $X.#.$66XO,<42,O*O+@533:>o$r6ry#*O*",
"8qqq3q:31% :;X=..=@@@@X r0677%o$#<<##**,2ww2#$;-;X#*O+.%:3:&*#+#+#**#++++#=%:1> @&X$X.=9r0>%$=#.@+#++,,& %X.O&&##u9uO,,*",
"7r050$=$o;>a-X&X9@99yy7rr 9&X%;%@.@ % $&+.X ;-;$=O**#+.%o->=#.===+.&@@&..=%>>$@.+uy7$$658:-@=+*#@=&XX=X>-@*<2*#*2,O*242*",
"#.Xr7.O.$o1a%=&$r666rr6r9X&.&%--% %;;>:-%o--; @+O+.=&.=o%;-&@X@@X&$$X@&+.%:-X#*O+&7000-56 X++++=XX %%  ;;@,24<,<44www4*+",
"<O@ 7.+X ;1e$..@9r6500ry+...& ;;r9Xr6-11>%$&.++.@  XX&= ;:>$XXX76%o7@=+*#->$#O#u&9650069+.u==&$o% % $@O+% *2422244ww4,+@",
"#=769O,= o:e +O##=@77X=+**OO.X $@&@$$o>>09@.#.765;$&=&&$-1-&+&r58q59y&+,+--7@999777r 6r7r55%$XX@&===+,<=o *<,*O,22<<<,O#",
"=@$ @,+X 01e;=###++.&&==99u#+@$X@&@$  ;857r@.&$$ X@&==+@->X+=9r08q:0r9@X-8850rr7yu= ->-;o @+OO+y9yyu**Xoo@OO+##*<,,<,***",
"oo-o@,+9083a;@=...#++..967y.&7 $X$r550;oXX $ %o;;%$X&.+ -%=.&@@$  X&===X58q80rr7$ o% $@=+*<*u97rry+,,&;;o$.+#***<222444<",
"q33>X=9658qa>$@@&&=.++@o-%@=@ % 77r0581>ooo;->>>>-;o% %>-$..==&$%79997rr58:q:567X$$X=#OO*,*u7666ryuO+%;o;oX#*,,<24wwttt4",
"ee3-  066%-a1$X$$9@@X$%-;$@X oo6rr0-:33:-;  oo $$   $ >3;@=&XX%;-05505555>>>:;r9=.+#*,*O*,#y99y9r9uu9066007#*<24wwtwww2<",
"qq8060079@6e3 7rr9@ ->--%X$;-;>505:33:;% X.+..#,,O###+ :o$ o->>:>::88>>;;06rr9yu+##*,*#O<2,+.O*+r9u=706rrr7=#,244<,*#+=9",
"0000000006;ee800r97:1>;-;-11%%:1:>8-%@.+.=++++*2<,*#++.$-1111-o%;>-:1:o$67yyuu.OOOOOO##,4w,=.#O+@X&&$o;%7979.OO#. ;88581",
"@ 05558qq8>>33>%%;:1>;;--:1>%%r  $@.OOOO#..+..+*#OO+=.#X:31>; X o% o:31-;;--o $.uy9y+O*,,*=$$$@O<<,#X;-%97r9=X o;::-5550",
" 588888qq8>::1:::>>-;;;;;%@..++*,O#OO+&&=.==&&&++**O+.$--;ooo% %;o $%--;;%$ oo .+u=#*O.@X9%o%XO4tt<=o::$@7% %-:>--;6;>>o",
">>066558881111:--------;o$=..#...=@@@@@&.#+=@&.#*O+&X -- $%ooooooo X%;--o&#.X@&.&y=#*#=@@9--o@<ttt2=-33o %-:31-% %o%o X&",
"; X@75558::>11>oo---->---%%% $$7   $$@==.#+=&=+O#@$%%   $$ %%;;o%  %;--;;X==&=.=@y=+=9779 >>o@O222<# 3e>o;>>:o@+#.X$@#,O",
"&=.@68:8q:o%:-;;---o%%o;--->8>o6 $XXX&&&=.=&&==.X %% =O=$  $ % X&@%->-;oo067@&&.+##u6855-:11;$@@@=#*=11 $609=+*<22*#O<4*",
"@XX 5qeee:$%-%%;--o X@XXXXr660;>- X$  % $@XX@X$ooX&&&.*#$;;%$.O,,+ --;o7yyyu##O***O@58888:13:%9%>8ry$3 ##&9+OO*<22*##,<O",
"$ $$o13eee1:;o%%%%X&.+..+@$$X9;:>;o;;>1>%$   o-:1oX.++.&%>-$#<2<*=oo%%$+*<24442,#=$-:5555833:%X7>87&%e;&.y9@.#*<22*#O#&o",
"&@@$o11::1:11>;;; &@@X ;o $$$$ $ %%o-857.+@ o;>::> &=@  ;- #24,+y7$@X&#<2244*+uyy=&X$97r0-::>;XXo00083- &&9=O*,,<2,OO+78",
"XX$ o;%$XXX$;:>-; $ o->:-  $  $X %  07&#O+@ %%%  0r977$$oo@#Ou767.OO#*<2442*y0ry#OO##+&$%o>>:-7X-:88q3109@&O<<,OO*#+#&0q",
"$$$$77@+##O#@%o%% %o;->;     %$$%%$$ &++.X7   $$ o066 &=&&+#@5q86+,<<24442#9059*<<,*#+@$%;>:1q-%qe33eeq6X&.*,,*#++==& 1e",
"==.=&X=##OOO++.@ % $$$XXX$$$  $$  $  X@X 66%%%%;>1>;o .#**O+$>>-;r+,<2442#706&,22<<O.@$%o-:q3e1:3eeeee:@###Ou+++.=@@ >3e",
"***#=@=++...===@$ $.#O*#=XX$  $   %%%  %ooooo;-:::-o  #*O=$ $=#@-8@O****O.XX+<<,***O&7r658:q15053eeeee>+,,Ou779@@9r58888",
"**O.X$&==&&&&@ oo;r@.#+.X % X$$$  %;;;>1>%6o->>--:-%%o.=&.OOO2w<&r.,<O@ &+O*,O##**OO#.X%;;580r768qeee3>.O+90566%o;o>:qqq",
"++.@X&+#+=&&Xo>:>-%r$X@X$%%  %;;->:1111>0r6;-oX=@X$%--o; .,<<22,.@.,<#&@.OO#=$ &OO+++= >13:88856r68eee309y99$o::;&,+90q3",
"==&@&=+#.&@X%---;o%%%  %o--;oo-;;>333>%Xy&.++#*<,*. -o-;$+*,*O#.&@.O+@XXXXX$o>:-% o-oo->:1>o%% $%-8qeaaq5r7$ >3>$O2O.98e",
"@@X@@&==&@X ;;o%% %o;oo-::>-o%o  -31;X.#++,ww4442<#$;%-o@+++=@X$%%$$o-;;---;oo:331-%$X&=@$@#*O##X-:qqaae-9#*+o1>@,,#& 83",
"9  $9XXX$$%--;%%% %;-;513:-o $$@$;:o=#OOOO2www42<*. -;-; $$ %o;->:>>::->>>:-$@;3e1 <24tt4<4ttw2,=;:88eae>.ts4X13%,2OX-33",
"@o; @X$%;>1qq>50%%oo;>13:o%%  $X o$.#*,<22442<<<*. >1:-:3e33q1:>>>; X..9$7056o>131$24wtttwtt4,#@;:>66>ee3 <<X-ea1O4<.;31",
"Xo%X&$ 058:33q:--->>:1::-%oo  $XXX=&&*<<,<<,#==+&$;:11>133:8>:>-%$ %%rr$.+@r00>ea3 <42,<4ww4<#=95q5@u5ee3-  o-:3e> X >3>",
"=@XX o;58qq333q:;%%%%  0;o%$X%  $@=9$=..+#++=XXX$ %;:3:>5885o;>>-;588-X<tw*&9@;ea3 <<,O#O#.u90850885;:31-%@+##+.=&@%o->o",
"$$$ o;55885:88>%@=&X9996ooo $oo% XX;o % @@@=.=@ %%%o--%65888058qq8558:%+24#X %>3e1 O+=@7r0566580708q3q1556y#OO*<<#%:;%o;",
" $$@=@r66rr679&+*,O.7r7rr o-;;o;%%-1::>;   $@@$  $   o$68qqq8q88q855>13;XX%->:1131%.&X76058505559r83qq56r9+*,*,<*$11$=%>",
"===*w2uyy=.+O,244w<.r6779908>%o;;;>:33:>-;%% $$&.+.=@%o>q3ee33q8858>:3e1:333q1:>11;=++&&=9r058qqr0q3809uO<2442*. 13o##o1",
"*++<t4*,<22444wttwO966799rr7XX$ X@&&%:111;$&#O*,OO*O=$o81qq3ee3q500>:11-:eeq8:-;13-.,,,*O*,y5qqq5:q-$+,244<OO&%>335u#X-3",
"*##*24wwwww4wttt4.rr6006r79=O*,<<,O#X;:1: #O+&997=.=X%;588883e1>-058>-5-1e3qqq1:11;.#O+.=.Oy655qq1-y,<22<,#X;>13ea>.O9::",
"=O<22wwwttw<,,<*&6rrr0886rr@*22*=&+#o3eq-=,O&X&=&@&&X%-::>5>11>-;058::8:q33qqe3133;+O,,O.+<Ou@6qe>@OO***O+==+###.%3:;:e:",
"=+OOO,<,*#=X@=uyr07y75>%@&.O,Ou90800eaa3o=#+&XXXX$$$$o;885000o;->--8111:q3q88qq:11;=#*,+7$&&=X;1e1%@&.*222244wwwwO;33ea1",
"9999yu#u9ro;; 776r=+$;;=#*<2*y658:>>3ee3o@X@@@X$$%% %;-5506r6658:>>qee1-588508:>::>rX@=900r$$%-oo%$@.O<244www4442#r8qeae",
"66rr77997605-0r669OO$o$#*,<<Oy00o XX >31 X %$&=@X    0580666555>>:13eeq696r99;>::qq8507979=Xo;$#*2<,<42,<242<**#y60083aa",
"9yy70500rr6;;6r77&#OX%$++..+#.&=#*<<&-1-@.X X&&9@@@X9r05558>o  o8qq1q38r&.*,.o>::18569#,*#O&%%+4ww4<2w2<4ttw2*#y65505qae",
"+#.9606 @.##+==@$$=.$o796o=,*#O,2wpwX-:;@X&.&97r7999yr8qqq5o %-3aaeq809=&2w<@o>:::-9O242,#+= %@,<<,<4ttttttw2,+yrrr775e3",
"<,+&@=.#*<<<*OO*#+#=;:-;; O422w424w,Xo;$+.=&@70555-505qqqqqqq3333q:8r=+=.<<O@%>:11;.*<*.XX@X %$.O*,<4wpw,*4tw2*#OOOO=oq3",
"O#.=.+.=+##O**,<<*#$>11>6=2wwttw42*=%->-->13:558883e3qeeee3e3333qq886&.=+22*Xo>>>>;XX$ o%XX %%%$=O<22242<2wptw2<<<2<.%13",
"@@@&&@ o%$$X@@&.=@ -11>69Owttwwtw<#X;>:13aaae3q3qq3aa3eee333q1q:8850r@=.O22+ -::-oo;;;o%@+.X$ % X+*<22<*2wtww4,OOO+.Xo13",
"o $ oo->>;oo->:>-:131-7yu,tptw4w42*@-:-;-:-;:eaa3::3eq::11:1>---50r&++#O,,. ;-11- $% @=+*<O=&X$ @.#,24*+*2<**.X$X@$ o-13",
">-->-;>-o 9 ;>:-%%-:>o$@u<tpttt44w2X1:%$$$.#9>3:$@$o>8oo->->o $ o5%#<<,<w* -o >11;&*,<,,,#=X&.X%&#OOO*####=@X;1: &+= -1e",
"@XX&.@6o7&=y===.+#&@X$$@+2ww44<O<w2 e3>;; @@XX=*,O+=&@&X%%o;XX$;:1-X+*2w4@-oX$:q: #<*##**#=X$XXo%@..=@$$%;;o%o>1:; $ o;o",
"#.@X7o--67@&&&@X@.X@==@=O244<*.X.,O;ae1:q31o@+*2<<,,,*=$  oo ;:::1:o=<4,X->%X;131;X=+&&..=&X%;;->>;%  %$@+*,,,#.&=+=$ =<",
"+.9655o 77X@&&@@&X%X=..+,22<*.76X++>a1-;o->-o$+<442,*#=X$ ooo:33:>>-$.+X>1:56:31;$+##+#O#.$77%;;>11-%&#*<wptt4<#===$-;.2",
".+y6-oX=====.=.##$%$=++#*O##u9r69.@1e> @+.@%-o=*<<O.@@&@X ->-:331>>>-;o-1qq85q3:$#22<<2<*+X$XX o->::%#244wptw4*@606-1>@*",
"++&$% @+####++##.X$$=+..=99yy7r7@=$33;X+*O#=$X=.==@$ X.=@%>3::3311:>:1::qq:55831$*ww422<*#+=X$ o;;>:;.<<**<42<O@5:855;$.",
"=@$ $$X.++#OOO. ;r$$=++=y7777rr$XX 1-X....#+.=&X$XX$X.#+Xo:1:11333q>-;0-:1;9@531%O42O=.#O+.=X %%o->:-X#O.yu*,<<*&669&&.#",
"@ r$X $&+O,,<,. 66% @#O.$%o;o%$@=@;1 +#&$&##+=X $@=&&=..@o:>;;;->>33;7X%-1$*O%1;&#. ; =#+..*,*,,.o->-@O,.%o $@+,,O#,2224",
"@ r9=...#OOO,O.@$r $=+.$ooo%$@.*<#oe: X %X&&@X$o;oo @&@&@%>-$$%o%X ;%@&%-1o&&%::>-;o% X&.++#<wt2@;>>;&*,#@o:q-XO<<2wtww4",
"655r=###.@@.+&X$%;o $X$$$@@&=+*2<+o31>>:::1:>->>>;%X&@X$ o>> $  &O+X@==$->o  o>13q;&#+=...9@O4w#o-:1-@.#O#X:q57.O,24w442",
"5880=OO+X% X$%;---%   X#<2<*#+#O#=X o:33eee318885%X&X %o;>>-@.&&.#.X@&@9$$X=+.$:eq6y+..+OO9 =**X--11;=.+OO=o5679&O2222<<",
"5857.O.$%%r ;>:-%$.O#+*tsspw,+X$&#,,@>331>-850050r776--558:%O*+@$ o%$XX=+##<pt+83q550%$=*2#XX==@$%:1o+O###.$rX99@*222<,,",
"85r=+@>3:%&= >-XO<tpptwpsspw<+o;X*<+-ee>9=X5885505555088581-X$o>131%&.+#O#O4pp+588qq5777u*,#&@=,<=>3-&O++++.=@@=O,<<<<**",
"85% ;1e3%O2<.% =,wpssp4,242O=$-:-% %;-%.*.75558855807r>33333>;;>11 +O**.==#,2*90888ryO.@&&=uuu.*<.;1>X###OO*#79.*<,<<*OO",
":q33333>X....==+O<wtt4OXX@$%;->-; 96oX+O+95q8556@@X$$o:1333131o;:-&.@@@7% =OO&65qq857##& o6yu9  &X;:>$O,,,,<<O+#,<<,,**,",
"13e33311:> .*<*######=X   %;;o% @=@ X.#O#@58809.+=X o>:>>:1>:; o:-o;0$=@%%@.& -qqq880@=@$7Xy9o-% -:1:$*<,,,<2,**<44<,OOO",
"%o;;-;o>eeoO2<*+&X$ % X&@$ %%$@=#O+.+++##.7007+O=X o;>::>>>; X$;::q1o&+X;o$$%->88888o X=u.&$;%=*.-331 ,<********<42O&$ %",
"+#.$ &+X:3%#*+@$ o;o%X+*+X 6r9@+,,*,*+.=&=&7r@++@XX$ ;11:-o @+=$->>6@.@-q:-;-::56655rr9u#. >-.ts4o3e1oO**O###O*,**.%>333",
"##=$X+#&-:o@@X$%oo% X=++=$%%60r#<2,*#+=$%$9  X&&@=+.X ->oX=@.*<*.@=+.90-:111qq:5066rrrr7X%>1%*tt*o13:o=##+##O,<*=%1:>-; ",
"##+++=@o:-XX$  r7977yu++.XX7609+OOO#+++&$$ $X=.#O#.@7X68o&#@$.OOOOO#+&@&$o;-:q:50r7999 ooo>>$#,O@>3311;X@&.+.@X%>ee>$=+O",
"#OO*#@%33;&=9779yy99u..++X$X&#O#++###O#.X %$.##++X77@X%:>%$$=O#+..=X $@.& ->:::888:8>-;%  >1:o$X >333331111>->:>06 X+O**",
"@+##= -e3 +=r6ryu#uO*O.+.X %XO#....=...&$o;ry+u&@X@@X$%;-;; .#=&==X %o%X$;:1:1q88133; %%%%>:11-oo>111::33ee15>:o.**,<222",
"-o $%;:e:X#y669.O,,2<O+.+@ o$.@@&=&@@99765507uu&=##.$o;%o;-o@&X@##..@ o  o>1133:>13:$=&X$$ o;o$@==@ %%  $ ->5:1;+44www44",
"ee3:>:ee;.O& $.O<222*+..+=$$&@ X@@@&9r6055667&##O*O& --%%;>>66 @*<*O.Xo;%%%o-11>o;>;X.+####++O<4tpw,O##,44#;1ee3o+2ww2<2",
":1::13ae$<4*X=O,<442O=X$@@@=.&X@&&&@@70>:%&+..#*#+&$o--% o>1>-;$..@ >3eae>@#+$X=+&%o @+O*<wtpptppppw44424w4+o3eaa3 .##O*",
"+X%oo>e1@2w<,4ww4ww<+y$ $X@.O*#+..uuOu9$X=+=XXX$o $%-:31113aq506%rr;->13-$+OOO<,#@$@=+,,*,wppppppptw4w2O*2wpw+o3eaa31> =",
"@$$X -1-+4w44twtptt,u99 ;:>o $o>:>o7X7%;>--::>>:1-->13e3113aq85:1:>-oo;; =++#222#97&O2ww2*,wppttt424ww*uyuO,<w2=>eeeeaaq",
"-; $o>:%+<44wwwtppt*uuy >3ee1:3ee1>;;->:1>>>;  o;o-131:>->3e3::::-;oo;;o @==.*<<#97@O2w42,*<24442<<<<*#yyyyyuwptO%1>:eii",
"ae:>>:> .*<wt44wtttOuy7-:131-o;;;oo%o;->-% $@=@$ X o;%$@@7-::-;%$@=.&XX@@..&@.#*O=9X.<22<**#O<2<#**O#uy97yyyO4psp<@ %:ai",
"iae31>- .O<ttwtwtt4+96:31>%@#OO*#+.=@X$  X=..&X$&OO#O**O#& r $&.#*<442<<<,#@  X.##&X=*<<,OO+#,2,OO##+y7rry#<wttpsst+$;1e",
">;->>oo@O<2wtpttww*90:313>XO<244<,*O###..+O*#.+<4ppptw<#&$ $@&.#OO<4w42242OX;>>$..@X.,<,*O#O,<<4t2,**+yyy#<4tttssssw.%->",
"OO&%o$XO24<<wtw444+6;->:3o.*OO*,OO*<2222,,*#==O<424wtw2*+&&..=+O,,,,2224tw<=o>;&**=$.<42*+.#,<<4t4<,OO,<,*,2tppsssss4@>:",
".+ >:o@tsp2242,,24X--0r;>X+.X$@+##*222<O.&977&#<<*,4w2,O#++#++.+,24wtw4ww4<+%>o#42.$+244<O+O,,*OOO#+.+,22<<4ttpppttw# ->",
"X@;1:%#pst2<*#+*,O o 99%;@.&$$X&==.#..=9r66509.OO+#*,*OO**,,#+..#*24wwww442O >%#2<.X#4w42,,2<*#+.=@99@O<222wwwtw<O#X%% o",
"=X>3>$*w4<*O.=.#O=X&.+=%o.O#=@X$77r%o%rr605507=.uyu#O#O**,,,****OO<24www244<&o .OO+.O244224w4,*O.9rrr .*<<2wwtw2#& --%97",
"+ 1e:$+#+.=@7@.##+O,*O=o%.,,#96r608:80r77r66r9yy99yuO#O*,,,<24w4<<222wtw24w4*.=&=..+#O,244ww2<<O@ 666%&O*,wpppw<= o-;% 9",
" :ee: X$ %055ru*222<*#=o;XO*=606r08807 r9uyyy97r6679@9+*2444442,OO*<4ttw4ww42<,.@@&=+O<4www4<*O= o;;; =+O4sssp2#X %;;-;r",
"%133:::::qq8859*wtw<*O@:>&*O&r67997 6%;ruOO+y9r66r99rru#*242,,,,#&@.4ppt4<,,<2<=$$@&=.O,<44<O.&9%;->- @+2psspw2<*&$o;-;6",
";3aaaaeq3386r9+<42*OO=o1;=+y7669yyX6--o7yO,Ouy&u+#+&79yu*wpt4<,*#@9@#2tt2#.#<2+%>-;o$@X$X.**#9605>::-%XO4ttppspt<.X ;>; ",
">eaiae6 >10uO*,,#@$X$o::69976569yyX7$@#,,222<<<44,&r$.uOwpptt42,#=&@X+2w*@X&+.9 $$   @===+O+y6588::>-%$&O2wpsss4O.=X%;o%",
"q3ea36OO@ry,442*@o% o885rrrr607+***,<4tpptttttwtw,@7&*O2tptptw2,O#.=&+,,.$ 7777&#O#.&=#*,*#y650066%o;o $+2tpsp4*#+.@X$  ",
"q1::o+<<*O*2w42*=$@@6550rr77r9O4ttppppsssppptt42<*#O,<24wwttt42<<<*O*,*.@@9r67y+*<2,O+O,2<#7069yuO+X%ooX*4ttw2OO,*.=&@$$",
"31>;$#*O,4w22,,*#uy7600666r6r+wpptptwwwttpptw4<O+O<244ww42442<<2wtw2,O#@&##uuuuO*<<****,<<O&9@=.#,#Xo;;XO<<*#+#<w4*.X$$$",
">>-%&+#O24<*###+&7;6&+yr067y#wppptttpptw4wtwttw2OO<4ww4424tptw44w2O.X   .<42,,24<,,22<,,*O##+.&=&=X%-::%&.&XX=O24*X -:::",
"3331o=+=X %;o$XX7r7yyyyrrr9#4pspttw4ttw44w<*2pst#+*<22,*2tpt,.$o;-;o;; =,wttwwt4,OO*OOO#++##=$  7$ ;>>>-;%$XX$X&X;>oo;;o",
">:3e3oo-:11>;%o>8ryy979766y,wpptptw442***Ouu,psp+#****#+OO. >::>;o $$ 7yO4ttw2<*+===+O#=@&.=$ r67X%-:-:-$.++X>31>%$@@@@=",
"o-1ee3e1---; %:e3ryy999907+2wwwww42,#uyyy97u,tpw##+.&X%;;>133:%@=+O##.y9+<42O+uu@X@&+#=X$X@ %%77&& -:-:$,4<*$1a3o.+++###",
";->:3eeoXX r7o:1>%X9$9yyryO<242<*#.@r6r7r6ryO*,O.@$%;:3e31>; =*<,,,,,O=9uOOuy$$99$X=.@$$$$%;o7@&..Xo-:>.24,+o31o&+==#*O+",
">>;;:3o&& %%o- X o$ %7yyr7X=#,,O&r0006rrr650%%o;;;--;o%$=#OO,,,*#O*O.X r9yuu9  X@X$$ o$=.$;%X=+++.=&$::;$X$o13-% $ @O*+@",
"; @&X=OO@%ooo%.+$%%%66yuuu.==.+&0885-856r655::>o$&=.+*22<**,2<*. ;6ro>11>676;%X.=XXXX&*<O&+,*OO+Xr7@ >eae3:33- X&=@=#+96",
"@==&@=+.X$$  $&=@$%%%7&uyu&@XX$o8qqq33q88185;o%$&.+#*<22442<*O#&0>-->1131111-$=+&@&==.O*##<4<O#= ;%$o3eeee3e3 .OO+=.@7$9",
"O#@%%$&&@@@X $XX$ %%%79yy9  $ ;>:>:q33333q>6% $@==.#OO*4tt4<*O+&r;>:11113ae-X+.&XX@&=.+#+#,42*#.@&==Xo:3eaaa:X+OO+.+=&+O",
"4<.  @===&&X$XX$o% %o0o%o>:>;;>>-;>qqqq1:80r  X=.&XX&=#<4w2,O+=X%->:>-;:aa:&*#&$$X@=..+###O,,*O#+***O=$>3aae;@====&++O<w",
"pw,##*O=@@@X$XX oo  -:333e31:>;o05>33315006 $$@++@o- .##OO#+&XX$oo   X$1ae O,+$X@&=+#++####++##+.#OO#uy01ee>$XXXX$$&+,4t",
"t4<,,,O$ X=@%$X$% @ >3eee:o%o%  6;>:3q:-00079&.+#@;-X,,O.&X%o%$@=#,*#+@1a3$**=$@XX&##+...==.#O#@799705rr831%X$$$$$$@.,44"
};
