/* XPM */
static char *result[] = {
/* columns rows colors chars-per-pixel */
"120 120 4 1 ",
"  c #375447",
". c #3C594C",
"X c #324F42",
"o c #415E52",
/* pixels */
"XX      .....  ....       XXXXXXXXXXXXXXXXXXXXXXXXXXXXXXXXXXX     XXXXXXXXXXXXXXXXXXX    X   XX   XXX .. XXXXXXX XXXX   ",
"XXXXXX   ..  .  . .         X   XX . XXXXX  XXXXXXXXX XXXXXXX   XXXXXXXXXXXX    XXXXXXXXXXXXXXXX XXXX o.. XXXXXX XXXXXX ",
" XXX    .  X           .  XXXXXXXX  .   X   XXXX XXXXXXXXXXXXXX XXXXXXXXXXXXX  XXXXXXXXXXXXX X   XXXX     XXXXX   XX    ",
"  X        X               XXXXXXX X      .  XX    XXX..  XXXXXXXXXXXXXXXXXXXXXXXXXXXXXXXXXXXXXX XXX   X X XXXX .   X   ",
"..    ..      . . .    .   XXX  XXXXXXX     XXXX  XXX    XXXXXXXXX    XXXXXXXXXXXXXXXXXXXXXXXXXXXXX     XX XXX  .  X   X",
"     X     X     .        XXXX   XXXXXXXXXXXXXXXXXXXXXXXXXXXXXXXXXX    XXXXXXXXXXXXXXXXXXXXXXXXXXXX  .  X   XXXXX XXXX  ",
"     X ...   .. ...      XXXXXX XXXXXXXXXXXXXXXXXXXXXXXXXXXXXXXXXXXXXXXXXXXXXXXXXXXXXXXXXXXXXXXXXXXX   XX   XXXXXX XXX .",
"  .    ...  ........   XXXX XXXX X XXXXXXXXX XXXX  XXX XXXXXXXXXXXXXXXXXXXXXXXXXXXXXXXXXXXXXXXXXXXXXXXXXXXXX XXXXX  XX  ",
".....   .     . . .     X    XXXX  .. .. X XXXXXX X XXX XXXXXXXXXXXXXXXXXXXXXXXXXXXXXXXXXXXXXXXXXXXXXXXX XXXX XXXX  XXX ",
".oo..     XXX             ... XXXXX .o...  XXXXXXXXXXXXXXXXXXXXXXXXXXXXXXXXXXXXXXXXXXXXXX  XXXXXXXXXXXXXXXXX XXXX    XXX",
" .....  X  XX     .      .... XXX XX  .    XXXXXXXXXXXXXXXXXX  XX  X   XXXXXXXXXXXXX XXX XXXXXXXXXXXXXXXXXXXXXXX X   XXX",
"  ....  X      ..  ....       XXXXXXXXXX X  .XXXXXXXXXXXXXXXX XXX  X  . XXXXXXXXXXXX X    XXXXXXXXXXXXX XX XXXX X       ",
"  ..o.  X         .. ....    XX     XXXXXXX . XXXXXXXXXXXXXXXXXXXXXXXX XXXXXXXXXXXXXXXX    XXXXX XX   X     XXXX     ...",
".....  X      .     . ....  X X    X  XXXXXXXXXXXXXXXXXXXXXXX XXXXXXXXXXXXXXXXXXXXXXXX  . XXXXX .. .. XX ...    X X   . ",
".... X        X    .        X     XXXXXXXXXXXXXXXXXXXXXXXXXXXX XXXXXXXXXXXXXXXXXXXXXXXX   XXXXXX ... XX   ...     XX    ",
"o.o..     ..o. X            X     XXXXXXXXXXXX XXXXXXX XXXXXX XXXXXXXXXXXXXXXXXXXXXXXX   XXXXXXX    XXXXX  ..           ",
"oooo. X  ...o. X          XXXX    XXXXXXXXXXXX  XXXXXXXXXXXXXXXXXXXXXXX..XXXXXXXXXXXX    XXXXXXX   X X   X   X  X  X .  ",
"..o.. XX .. . X     ... X XXXXXX XXXXXXXXXXX    XXXXX  XXXXXXXXXXXXXXX... XXXXXXXXXXX X  XXXXXX .       XXX  XX   . ...X",
"  .. .   .  X        .      XXXX XXXXXXXXXX    XXXXXXXXXXXXXXXXXXXXXXX .. XXXXXXXXXXXX   XXXXXX     ...  XX XX   ...... ",
"         .        . .        X XXXXXXXXXXXX  XXXXXXXXXXXXXXXXXXXXXXXXX    X     XXXXXX ..XX    XX ........       .. ....",
"X  XX X ..   .. .           X XXX XXXXXXXXXXXXXXXXXXXXXXXXXXXXXXXXXXXXXXXX  ..... XXXX ..   XXX  ...o.oo.o  ..     . ...",
"  XXX    .......  .          XXXXXXXXXXXXXXXXXXXXXXXXXX X XXXXXXXXXXXXXXX  ..o.... XXX ...  XX  .ooooooo.. . ..  X     .",
"   XXX   .. .......      XXX XXXXXXXXXXXXXXXXXXXXXXXXXX X        XXXXXXX    .... .. XX  .   X  .o...o.o..    . .. X  .  ",
"        .    .....         X XXXXXXX XXXXXXXXXXXXXXXX          . XX XXXX   .   .              ...o....o..  . .... XX..  ",
".        .   .  ... X   .   . X X X XXXXXXXXXXXXXX X     ..      XXX X  X   ...          .      ...o..o..   . ....XX ...",
"...  X  . .    ...       .... X XXXX XXXXXXXXXXXXXX XX       XXX  X X XX  . .  .        . ..   ..........    .  .o.  ...",
"..       . .   .. .      ... XXXXXXXXXXXXX  X XXXXXXX     XXX  XX  XXX     .  .       . ...    ....o.oo.. . .   ooo   . ",
"  .    X    . .         XX XXXXXXXXXXXXXX      XXXXXX  XXXXXXXX  X  X X        . .  ...     ...........o.   ..o.....  . ",
"   .       .        X XXXXXXXXXXXXX XXXXXXXXXX XXXXX   XXXXXX  X   XXXXXX X          .  .... ....oo.o.ooo. ..oooo...... ",
"X                  X X XXXXXXXX       XX X X X XXXXX   XXXX     X  XXXXXXXXXX          ... .........o..o.   ..o.oooo.o..",
" .   X  ..           X XXXXXXX        X  XXXX  XXXX     X  X   X                      ............... .  XX  ....oooooo.",
"     ...oo..            XXXXXX XXXX     X     XX           XX XXXXX         . .       .oooo.....o.     XX       ...ooo..",
"    ....ooo..      .    X X XXXX X   ..       XX  .      . X XXXXXX  .... ....        ..oooo.......  X    ..      ...   ",
" X   ...ooo.. X        X  X XXXX   ..... X    X  .   X   .  X  XXXX   ....... .  X      ...o.    ...  . ...   XX  ....  ",
"  XX  ..o.o..  X      X    XXX XX   ...  XXXX        X  .        X   . .. ....  XX     . .....   ...  .....  X    ...   ",
"  XXX ..ooo..   X     X   X XXXX XX     XXXXX X  .        .    XXX          . .      ...  ....   .... ....         .  X ",
"    XX .ooo   . XX      X XXXXX  XX  XXXXXXXXX             .. XX   ..  .. .   .      ..  ....    ........  X    . .     ",
"...  X ..o.. .. XX ....  XXXXXXX XXXXX XXXXXXXXX            .      ...       .. X     .. .. ..    ....        .......   ",
"oo.. XX ....  .    ....   XXXXXX XXX     XXXXXXXXXXXXX       .  X ...       .         ......      .    . .   .......    ",
"ooo. X  ....  . X  . .      XXX   X    X XXXXXXXXXXXXX    X  . XXX           . X ...  ........         ...   .........  ",
"..o.. ..o.     ...  XXX   X XXX  XX XXX   XX XXX XXXX    XXX   XXXX X   .       .... ..oo..    X .  X       ....        ",
"..oo...oo.      ... X  X X  XXXXXXXXXXXXX XX XXX  X  X XXXXXX XXXXXXX X..   ...  ..   ....  X X  .    X  .  ....        ",
" ..oooooo.     ....    XXX   XXXXXXXXXXXXXXXX       XXXXXXXXXX X X X    .   ooo.            XXX  ..   X     ....   .  ..",
" ..ooooooo..........    XXXX XXXXXXXX  XXXXXXX      XXXXX XXX             X ....    XX ....   XX  ..     ..   .    .....",
"   ..oooo. ...o.o....          .. X  ... XXXX . . . XXX        X X X  .. XXXXX  .  XX .ooo.. .  X  .   .....       ...oo",
".   .ooo X .... . ...   .o.. XX . XX ...o    ...          X   XXX XX  ...XXXXX   ..   .ooo....      .     .   ..    ...o",
"...oooo.         ...o. .ooo.XXXX XX  ...........      .   XX    XXXX   .  X    XX  .  ..o..              .   ...   X  ..",
"..oooo. X    .  . ...o. .oo.XXX   X .   .........XX ..o.  X ....  XXXXXXXX ..     ..   ... X       X    . .   ...      .",
".ooooo XX .......  .oo X     XX  X       .... .. XXX.o.. X .oooo.  XXXXXXX ....  ...        X X   X       .    ..   ....",
".oooo.    .....    ... XXXX X   .    X      . .. XX  .  X  ....    XX     ........  XXXX    X      . .             .oooo",
".ooo...  .... ...... X       X  ...   X         XXXXX   XX   XXXXXX     .......o..  XXX      ..     .. . .   X     ..ooo",
"..o.oo....... . . . X ....  X   ...  X XX       XXXXX   X XXXXXXX      XX   .o...  XXXXX X  .....     .    X XXX   ..oo.",
".o.oooo........    X .oo.  XX X     X X X X X .. XXXXX  X X    . X    XXXX  .....  XX   XXX ......   .      XX      ....",
".oooooo...ooooo. .   ...  XX   X           XX  ..  XX .     . .. XX XXXX         X  ...  X  ...     . .   X  X          ",
"oooooo.....ooo.. ..   .      .  XX ........ . ....  ..oo.... . . XX     X          .... XXX        .......          XXX ",
"o.ooooo.. ..o.. .     ....o.o.. X  .o.ooooo.o....... ..oo. . ..     ...         XX  .   XXX . X   . ..o... ...          ",
"ooo.oo.........      . ..ooooo. X   . .oooooo. XX   X   XX  .        ..     ....  X XXXXXX ...      ..........     XXXXX",
"oooo.ooo....o......    .oooooo   X    ..oo....    XX  XXXX           oo.   ....... X  XX  ....  ..........          .   ",
"ooooo.o.. ......oo.  . ...oo..      X   . .... ...    XXXXX .   .  X.oo   .. ........     ...X .oo......       X XX ....",
"oooo.... ........o.....       .      XXXX    ..ooo.    XXX ...    X .o. X .....oooooo..       X ........ .          X   ",
"oo....  ...o....oo...oo...  . ..     .        ..o..  X XX  ..     XX . XX     ...... ..   ..  XXX   ......  X .... X    ",
".....    .ooooo..o.oooooooo.... . . .o.. .      ....XX      .    XX  . XXX         XX   X..o.XXXX   ..oo..    .ooo..... ",
"oo..  .   .oo......oooooooo..   .. ....o.o.     ...  XX XX  X   XXXX .. X XX   .  X   X  ....       ..oo.. XX .o.oo...o ",
"oooo.... ..oo...o..ooooooo... . .. ........     ....  X X XXX .  XXX ..  X X  ..     X    o.        ...o.  XX  ...o.... ",
"oooooo.....oo.....ooooooo... .  .....        X  .....      X  .  XXX .o   X       XXX  X   . X X   . ...  XXXX  ..o..  X",
"oo..oo....o.o.........o...  .   ..o.      X X   ............  . XXX ...    XXX  . .   X X .  XX     .... XXXXXXX .... XX",
"oo...........  oo..o..... .    . .o. XX X  XX     .ooo....    XXXXX  . .    X XX.oo..       XX        .   XXX X   .. XXX",
".. . ............oo...... ..     ...     .      ...ooo.. .   .   X           X X.ooo. X    XXX  . .  .                 X",
"... . .......oo...o.. . ..   XX   ... ......  ..o.ooo.     ..o.           XXX   .ooo. XX   XXXX     .  .               .",
" ..........o.o........... ..     ...    .     .oooooo.    . ...  .  X X  XXXXX  oooo. XX   XXXXX  .. .   X       .   ...",
"..oooo....oooo.o.. ......... .  ....    .   X .ooooo.   X            XXXXXX X   .ooo  X  .     XXX  ...             . ..",
".oooooo....o.........oooo...... ...........   .oooo.         .        XXX X      . .   ....... XXXX .... X      XX .....",
"..oooo..o.o....o.....oo.o..... ................ooo.         . . ...    XXX     X   X  ...oooo.. XXX .... X     XX ...ooo",
".ooooo.....oooo......o.ooo...... . .......... .... .         . ....     X   .   XXXX ...oooooo. XXXX .o..     X  .oooooo",
".o.o......ooooo... ..oooo...o.o.. ......    .... .....  .     . ... X .         XX X ..ooooooo.. XXX .oo..      ..o..o.o",
"..   ....ooooooo.  .....oo..o..... . . ....         ......   ..       ....      XX  ....oooooo..      .oo XXX .....o...o",
". .......oooooooo....oooo.o.... .....o.o.o.  ..    . ...o. ..o....   ...o.  X X X    ...........      .oo XX  .oooo.....",
"......o..ooooooooo. ..ooooo.o... ....oooo..  ...    ..ooooo...oo.... .....      X       .  .   .       ..   ...ooooo...o",
"oo....oo..ooooooooo ..ooooooo........ooooo.......  ...ooooo.o.ooooo.o. ... X X X    ...... .   .     X ......oo.o.o....o",
".o.o.ooo..oooooooo...ooooooooooo..o...o...........  ..ooooo.oooooo.o..                .o....... .   XXX   ..o.o...o.....",
"...........o.oooooo..ooooooooooo.ooo..o.... . . .. ....o..oooooooo.....       X     . ...........   XXX   .......o.... .",
"....... ...oooooooo.ooooooooooo...oo.o.o...... . . .... ....ooooo.. ... . .          .. .. .......  X X  ...o...o.ooo...",
"   .   ...o..ooooo.oooooooooooo.......oo.o.o.. ......o    ........   .. . .         ...       .   .  XX  .....oooooooooo",
" .. ....oooo.oooo...oooooooooo  .....oo.o.ooo........... .   ....          .        ....            XX  . .......ooooo..",
".......ooo.oo......oooo.oooo. ..oo.........oo.......  . .. ...    .     . .    X    .       X     XXXX    . . .....o..  ",
"oo.....oo.oooo... ..o.ooooooo..ooo.... ...oo........  .....o..     ... . ...  XX            XX   XXX       ...        XX",
"oo.........oo...  ..oooooooooooooo....  .ooo.. . ..   .. ..ooo.    .........    X    XXXX  X X XXXX   X  X    XX     X  ",
"oo......o...... . .oooooooooooooooo... ..oo... ............ooo. .. ......... .        X     X X   .    X X XXX X     .  ",
"oo  ........ .... .oooooooooooooooo... ...oo..o.... .oo....ooo..... ..o.........        ...   ........   X     X  ..oo. ",
".. ....o.o.. ......ooooo ..ooooooo.... ....ooooo.. ..ooooooooo.oooo. .o..  ...oo.....  ......... .....    XXXX  . ..oo. ",
" .....ooooo........o.oo.....oo.o.oooo. ....oooooo . .oooooooooooooo.....    .oo........ooo.....       ..       ....ooo..",
" ....oooooooooo.........o..oo...ooooo. ..ooooooo.....oooooooooooooo.        ....ooooo..oo...          ...     ...ooo.o..",
"  ...ooooooooooo...o..o...o..o..oooooo..ooooo.o.o....ooooooooooooooo.       .....oooooooooo..  X    .... .  X .ooooo....",
"  ...ooooo.oooo...o..o.ooo..o..oooooo...ooo.oo.oooooooo..oooooooooo................ooo...ooo..   .......... X ...o......",
"....oooo............o.o.......o.ooooo...oooo.ooooo.o.ooooooooooooooo...o.oo.......ooo.....ooo......oo.....     .... ....",
"oooo............. ..o.oo.o...o....oo....oo.o.o.o.ooooooooooooo..oo....oooo.o......ooo.. ..ooo.oo......                  ",
"ooooo.o... .  .. . ...o...........o.......o...o.o.o.o.oooooooooo...  .....o.....o.oooo.o. .oo.ooo. ....            .    ",
"  .oooo..     .o.......o. .......oooo..........o.o.o.ooooooooooo... . ....oo....o...oooo...oo.... ..oo..          .   XX",
"  .ooo... . ..ooo....ooo.. ..o.o.ooo..o.ooo.o..o.o.o.oooooooooooo .. .......ooooo.ooooooo...o. . . .....       . .      ",
"  .oooo..   .oooooo..ooo....o.oo.ooooooooooo.o..o...o.oooooooooo.. .......ooo.o.oo.oooooo.o......  .... .   X   . .   . ",
" .ooooo..   .ooooo.ooooo....ooo.o.o..ooooooo...o..o..o..ooooooooo....o.ooooooooooooooooooo.......        . X X  .   ..o.",
" .oooo.  XX  ooooooooooo..ooooooo....oooooo.o...oo.oo.o..oooooooo. ..oooooooooooo.o..ooo....  ..ooo....  . XX .o..  ..oo",
"..ooooo. XXX ..oooooooo....ooooo.....ooooooo.....oo.oo....ooooooo.  ..ooooooooooooo.......... .ooooooo.  ..   ooo.  .ooo",
".......  XXX  .ooooo.o.o..oooooo......ooooo......o.o.oo..oooooooo.. ...oooooooooooo . ....... .oooooooo. ..  .ooo.  .ooo",
"....... XXX    ooooo..o....oooo.o..o..oooooo.....o.oo.o...oooooooo.. ..ooooo.ooooooo.....o... .ooooooooo  .   oooo. .ooo",
". .     XXX   ..ooo.......ooo.....ooooooooooo.........o..ooooooo..o........o.oooooooo.......o.oooooooooo  ..   .......oo",
"....           ...o. . ...ooo....oooooooooooooo.....o.ooo.oooo....oo.....o.oooooooooooo....ooooooooooooo. . .  X ..o.o..",
"....  .   . . . ... . . ..ooooo..ooooooooooooooo...o.o...o..oooo..oo.......ooooooooooooo..oooooooooooooo.         ..o.o.",
". .    .. .  . . ....o....oooo.oooooooooooooooooo...oo.o.o.oo.....o....  ....ooooooooo... .oooooooooooooo.   .. . ...o.o",
"... . .    ........oooo....oooo.oooooooooooooooooooo...o..o.o.o...o...... .  ..oooooo.... .oooooooooooooo     .    ...o.",
"..      . ...o....oooooo.....o..ooooooooooooooooooo.o.o..o................  . ..ooooo... ...ooooooooooooo      ......oo.",
".. . . . . .... .ooooooo....o.ooooooooooooooooooooo.....o....o.....o.o.o...  .....o........ooooooooooooo.. . . .  ....o.",
"o. . .  .      ..oooooo..o....ooooooooooooo.ooooooo...o..o.....o...o.ooooo.. ...o.o.. .....oooooooo..oooo.......... ....",
"o.     .       .oooooooo......oooooooooooooooooooo.o....o...o......ooooooo......ooooo......oooooooo.ooooo...............",
"..  ...  XX   ..ooooo.....oooo.oooooo.oo...oooooo.o..o....o..o.o..o.oooooooooo...ooo.....o.ooooooo.....o.o..o.o.oo....o.",
" . .....       ..oooo.....oooo..oooo..ooo.oooooo..oooo...o.oo.o..o..ooooooooooo......oooooooooooo... . .......ooooo..oo.",
"  ..oo....  .....oooo....oooo...ooo...ooooooooooo.o...o.oooooo.o..o.ooooooooooo.......ooooooooo......  ....o.oooooooo.o.",
"  oooo....... . ..oo.....ooooo...oo...ooooooooooo......o.oooooo.o..oooooooooooo........oooo. ....o.. .   .....oooooooo.o",
" .ooooo..o....  .....  ....o..ooooo.....oooooooooo. ....ooooo.o.....ooooooooooo ....   oooo  ...o..     ....oooooooooooo",
"..oooo....o..  . .... ..... ..oooooo....ooooooooo..... .oooo.....o.ooo.ooooooo....... .oooo  ...o..    ..o.oooooooooooo."
};
